<svg id="visual" viewBox="0 0 960 540" width="960" height="540" xmlns="http://www.w3.org/2000/svg" xmlns:xlink="http://www.w3.org/1999/xlink" version="1.1"><rect x="0" y="0" width="960" height="540" fill="#111827"></rect><path d="M0 433L22.8 425.8C45.7 418.7 91.3 404.3 137 391.3C182.7 378.3 228.3 366.7 274 351C319.7 335.3 365.3 315.7 411.2 318.8C457 322 503 348 548.8 353.2C594.7 358.3 640.3 342.7 686 354.3C731.7 366 777.3 405 823 422.8C868.7 440.7 914.3 437.3 937.2 435.7L960 434L960 541L937.2 541C914.3 541 868.7 541 823 541C777.3 541 731.7 541 686 541C640.3 541 594.7 541 548.8 541C503 541 457 541 411.2 541C365.3 541 319.7 541 274 541C228.3 541 182.7 541 137 541C91.3 541 45.7 541 22.8 541L0 541Z" fill="#0476B3" stroke-linecap="round" stroke-linejoin="miter"></path></svg>